<svg xmlns="http://www.w3.org/2000/svg" width="2048.089" height="841.988" viewBox="0 0 2048.089 841.988">
  <g id="Group_133" data-name="Group 133" transform="translate(99 -92.341)">
    <g id="Group_31" data-name="Group 31" transform="matrix(0.454, -0.891, 0.891, 0.454, 1243.391, 176.741)">
      <g id="paint-palette_1_" data-name="paint-palette (1)" transform="translate(0 0)">
        <path id="Path_1" data-name="Path 1" d="M.77.327A1.807,1.807,0,1,0,3.288.772,1.81,1.81,0,0,0,.77.327Zm0,0" transform="translate(57.248 23.698)" fill="#c19a4d"/>
        <path id="Path_2" data-name="Path 2" d="M11.6.378.7,8.8a1.807,1.807,0,0,0,2.211,2.86l10.9-8.426A1.807,1.807,0,1,0,11.6.378Zm0,0" transform="translate(62.935 11.125)" fill="#c19a4d"/>
        <path id="Path_3" data-name="Path 3" d="M88.245,11.833c3.992-4.919,5.163-8.194,3.684-10.3C90.333-.752,86.654-.49,80,2.377a126.646,126.646,0,0,0-17.286,9.545c-15-10.157-32.023-12.355-44.686-5.7C6.2,12.446-.2,25.324,0,42.489.143,54.133,3.57,61.97,6.42,66.494c3.6,5.717,8.319,9.443,12.943,10.223,4.682.79,8.313-1.62,9.916-6.065,1.4-3.89.412-8.987,5.747-11.109,3.136-1.246,6.512.245,8.026,3.547,4.66,10.164,6.533,19.475,17.792,23.431,10.056,3.532,18.8.329,24.142-7.746,8.319-12.585,7.5-36.234-8.786-55.043a93.682,93.682,0,0,0,12.044-11.9ZM81.972,76.782C77.361,83.757,70.283,86,62.043,83.111c-9.555-3.357-11.132-11.557-15.7-21.528a9.868,9.868,0,0,0-12.648-5.4c-7.395,2.941-6.634,9.978-7.813,13.241-1.051,2.914-3.095,4.2-5.913,3.728-6.458-1.089-16.119-11.6-16.346-30.707C3.432,26.707,9.147,14.981,19.709,9.426c11.132-5.853,26.153-4.038,39.719,4.66-.949.639-1.9,1.287-2.83,1.942a134.744,134.744,0,0,0-11.413,8.894l0,0,0,0a67.757,67.757,0,0,0-9.078,9.34,9.038,9.038,0,0,0-10.675,4.86L23.479,43.3a9.04,9.04,0,1,0,5.555,9.129l5.371-.469a9.031,9.031,0,0,0,8.189-8.034A65.694,65.694,0,0,0,54.3,38.734a1.762,1.762,0,0,0,.787-.434,134.847,134.847,0,0,0,11.874-7.465c2.179-1.526,4.338-3.141,6.438-4.812,14.987,17.277,16.21,39.2,8.569,50.758ZM42.233,40.247a9,9,0,0,0-2.884-4.269,61.511,61.511,0,0,1,6.7-6.984l5.122,7.315a62.162,62.162,0,0,1-8.941,3.938ZM20.288,52.286a1.807,1.807,0,0,0,1.48.771c.052,0,.105,0,.158-.007l3.419-.3a5.425,5.425,0,1,1-3.4-6.165l-1.817,3.9a1.8,1.8,0,0,0,.157,1.8Zm4.44-3.109,3.97-8.517a5.424,5.424,0,1,1,5.394,7.7Zm40.163-21.3c-3.561,2.494-7.094,4.739-10.525,6.69l-5.582-7.971c3.017-2.564,6.335-5.118,9.888-7.6A147.769,147.769,0,0,1,80.453,6.129c5.879-2.655,7.941-2.57,8.47-2.466-.045.671-.8,2.711-4.037,6.559-5.259,6.251-13.2,12.9-19.995,17.652Zm0,0" fill="#c19a4d"/>
        <path id="Path_4" data-name="Path 4" d="M9.038,0a9.038,9.038,0,1,0,9.037,9.038A9.048,9.048,0,0,0,9.038,0Zm0,14.46A5.423,5.423,0,1,1,14.46,9.038,5.428,5.428,0,0,1,9.038,14.46Zm0,0" transform="translate(57.99 58.887)" fill="#c19a4d"/>
        <path id="Path_5" data-name="Path 5" d="M9.038,0a9.037,9.037,0,1,0,9.038,9.038A9.048,9.048,0,0,0,9.038,0Zm0,14.46A5.423,5.423,0,1,1,14.46,9.038,5.429,5.429,0,0,1,9.038,14.46Zm0,0" transform="translate(61.605 37.198)" fill="#c19a4d"/>
        <path id="Path_6" data-name="Path 6" d="M9.038,18.075A9.038,9.038,0,1,0,0,9.038,9.048,9.048,0,0,0,9.038,18.075Zm0-14.46A5.423,5.423,0,1,1,3.615,9.038,5.429,5.429,0,0,1,9.038,3.615Zm0,0" transform="translate(16.418 13.7)" fill="#c19a4d"/>
      </g>
    </g>
    <g id="photo-camera" transform="translate(1747.616 329.295) rotate(-21)">
      <path id="Path_14" data-name="Path 14" d="M3.239,0A3.24,3.24,0,1,0,6.479,3.24,3.241,3.241,0,0,0,3.239,0Zm0,0" transform="translate(76.453 12.958)" fill="#c19a4d"/>
      <path id="Path_15" data-name="Path 15" d="M156.145,25.916H140.533L135.894,7.36A9.709,9.709,0,0,0,126.464,0H71.794a9.711,9.711,0,0,0-9.431,7.362L57.725,25.916H45.353v-3.24a9.729,9.729,0,0,0-9.719-9.719H22.677a9.729,9.729,0,0,0-9.719,9.719v3.24H9.719A9.729,9.729,0,0,0,0,35.635v84.227a9.729,9.729,0,0,0,9.719,9.719H156.145a9.729,9.729,0,0,0,9.719-9.719V35.635a9.729,9.729,0,0,0-9.719-9.719ZM68.649,8.935a3.238,3.238,0,0,1,3.146-2.456h54.669a3.239,3.239,0,0,1,3.146,2.454l4.244,16.983H64.4ZM19.437,22.677a3.243,3.243,0,0,1,3.24-3.24H35.635a3.243,3.243,0,0,1,3.24,3.24v3.24H19.437ZM6.479,90.706H16.2a3.24,3.24,0,0,0,0-6.479H6.479V71.269H16.2a3.24,3.24,0,1,0,0-6.479H6.479V51.832H29.156a3.243,3.243,0,0,1,3.24,3.24v45.353a3.243,3.243,0,0,1-3.24,3.24H6.479Zm152.905,29.156a3.242,3.242,0,0,1-3.24,3.24H9.719a3.243,3.243,0,0,1-3.24-3.24v-9.719H29.156a9.729,9.729,0,0,0,9.719-9.719V55.072a9.729,9.729,0,0,0-9.719-9.719H6.479V35.635a3.243,3.243,0,0,1,3.24-3.24H156.145a3.243,3.243,0,0,1,3.24,3.24Zm0,0" transform="translate(0 0)" fill="#c19a4d"/>
      <path id="Path_16" data-name="Path 16" d="M38.874,0A38.874,38.874,0,1,0,77.748,38.874,38.918,38.918,0,0,0,38.874,0Zm0,71.269a32.4,32.4,0,1,1,32.4-32.4A32.432,32.432,0,0,1,38.874,71.269Zm0,0" transform="translate(60.255 38.874)" fill="#c19a4d"/>
      <path id="Path_17" data-name="Path 17" d="M25.916,0A25.916,25.916,0,1,0,51.832,25.916,25.945,25.945,0,0,0,25.916,0Zm0,45.353A19.437,19.437,0,1,1,45.353,25.916,19.458,19.458,0,0,1,25.916,45.353Zm0,0" transform="translate(73.213 51.832)" fill="#c19a4d"/>
      <path id="Path_18" data-name="Path 18" d="M12.958,0A12.973,12.973,0,0,0,0,12.958a3.24,3.24,0,1,0,6.479,0,6.487,6.487,0,0,1,6.479-6.479,3.24,3.24,0,1,0,0-6.479Zm0,0" transform="translate(86.171 64.79)" fill="#c19a4d"/>
      <path id="Path_19" data-name="Path 19" d="M29.156,0H3.239a3.24,3.24,0,0,0,0,6.479H29.156a3.24,3.24,0,0,0,0-6.479Zm0,0" transform="translate(89.411 12.958)" fill="#c19a4d"/>
      <path id="Path_20" data-name="Path 20" d="M18.141,0H3.239a3.24,3.24,0,0,0,0,6.479h14.9a3.24,3.24,0,0,0,0-6.479Zm0,0" transform="translate(131.524 38.874)" fill="#c19a4d"/>
    </g>
    <path id="pencil" d="M117.739,15.208a2.463,2.463,0,0,0-2.343-.119l-19.26,9.072A20.923,20.923,0,0,0,84.194,41.431l-.5,6.153L73.718,64.159V57.082c0-.023-.012-.043-.012-.068a2.46,2.46,0,0,0-.117-.718L68.945,42.367l9.48-18.954a2.486,2.486,0,0,0-.249-2.6L63.272.938a2.574,2.574,0,0,0-3.974,0L44.392,20.812a2.486,2.486,0,0,0-.236,2.6l9.48,18.954L48.993,56.3a2.46,2.46,0,0,0-.117.718V67L33.4,43.505c-.019-.027-.049-.043-.067-.067A2.514,2.514,0,0,0,32.8,42.9c-.047-.034-.09-.074-.14-.106s-.057-.05-.089-.068l-9.108-5.267-3.781-5.738-5.465-8.3a2.484,2.484,0,0,0-2.9-.976l-9.666,3.39A2.484,2.484,0,0,0,.144,29.007a2.422,2.422,0,0,0,.267.537L7.245,39.919l3.769,5.736L12.256,56.1a.911.911,0,0,0,.025.1c.011.053.024.105.04.156a2.459,2.459,0,0,0,.293.746c.018.025.018.057.035.082S49.592,113.178,49.77,113.33a12.3,12.3,0,0,0,11.5,7.924,12.585,12.585,0,0,0,3.008-.367,12.343,12.343,0,0,0,7.649-5.645l33.04-54.811,5.217-3.3a21.076,21.076,0,0,0,6.723-6.874,20.863,20.863,0,0,0,2.981-11.75l-.969-21.27a2.485,2.485,0,0,0-1.18-2.028ZM99.746,59.476,95.9,65.858l-12.766-7.7,3.848-6.382ZM53.844,97.12V59.566H68.749V72.4Zm4.276-52.46h6.354L67.785,54.6H54.808ZM61.3,27.271a2.484,2.484,0,1,1,2.485-2.484A2.484,2.484,0,0,1,61.3,27.271Zm0-20.7,12,15.994L64.73,39.692h-.949v-7.91a7.452,7.452,0,1,0-4.968,0v7.91h-.949L49.3,22.564ZM26.6,45.01l-.731.482L16.72,51.519l-.842-7.04a2.481,2.481,0,0,0-.393-1.071L12.753,39.26,16.9,36.527l2.733,4.148a2.5,2.5,0,0,0,.83.783ZM11.135,27.767l3.031,4.6L10.018,35.1,6.291,29.465ZM24.394,52.409l6.211-4.1L48.876,76.024v27.1l-30.7-46.606Zm43.285,60.252a7.453,7.453,0,1,1-12.807-7.626l.045-.074L73.675,73.85h.043v-.067l6.851-11.366,6.382,3.856,6.392,3.84Zm44.984-64.982a16.048,16.048,0,0,1-5.124,5.236l-4.413,2.795-7.2-4.337-7.2-4.338.41-5.217a15.959,15.959,0,0,1,9.1-13.167l15.9-7.485.316,6.923a2.459,2.459,0,0,0-.746.032l-6.017,1.491A15.122,15.122,0,0,0,96.506,41.041a2.483,2.483,0,0,0,1.881,2.966,2.394,2.394,0,0,0,.544.063,2.486,2.486,0,0,0,2.422-1.943,10.186,10.186,0,0,1,7.52-7.687l5.8-1.439.261,5.714a15.925,15.925,0,0,1-2.274,8.963Zm0,0" transform="translate(1797.579 702.265) rotate(-18)" fill="#c19a4d"/>
    <g id="Group_36" data-name="Group 36" transform="translate(-99 194.081)">
      <g id="video-camera">
        <path id="Path_31" data-name="Path 31" d="M311.807,200a5.807,5.807,0,1,0,5.807,5.807A5.809,5.809,0,0,0,311.807,200Zm0,0" transform="translate(-128.308 -83.862)" fill="#c19a4d"/>
        <path id="Path_32" data-name="Path 32" d="M311.807,260a5.807,5.807,0,1,0,5.807,5.807A5.809,5.809,0,0,0,311.807,260Zm0,0" transform="translate(-128.308 -109.02)" fill="#c19a4d"/>
        <path id="Path_33" data-name="Path 33" d="M71.807,300a5.807,5.807,0,1,0,5.807,5.807A5.809,5.809,0,0,0,71.807,300Zm0,0" transform="translate(-27.674 -125.792)" fill="#c19a4d"/>
        <path id="Path_34" data-name="Path 34" d="M294.194,70.341a5.808,5.808,0,0,0-6.009.388l-48.443,33.8H224.147V98.718A17.44,17.44,0,0,0,206.727,81.3H185.143A46.435,46.435,0,1,0,113.816,24,46.438,46.438,0,1,0,42.488,81.3H17.421A17.44,17.44,0,0,0,0,98.718V203.243a17.44,17.44,0,0,0,17.421,17.421H49.94v17.421a5.806,5.806,0,0,0,5.807,5.807H73.167v29.035a5.807,5.807,0,0,0,5.807,5.807h69.683a5.806,5.806,0,0,0,5.807-5.807V243.891h17.421a5.806,5.806,0,0,0,5.807-5.807V220.664h29.035a17.44,17.44,0,0,0,17.421-17.421V185.822h15.595l48.443,33.8a5.808,5.808,0,0,0,9.13-4.763V75.49a5.808,5.808,0,0,0-3.121-5.149ZM154.464,11.614a34.842,34.842,0,1,1-34.842,34.842A34.881,34.881,0,0,1,154.464,11.614ZM123.785,81.3H103.844a46.736,46.736,0,0,0,9.972-12.383A46.772,46.772,0,0,0,123.785,81.3ZM38.326,46.456A34.842,34.842,0,1,1,73.167,81.3,34.881,34.881,0,0,1,38.326,46.456ZM142.85,267.119H84.781V243.891H142.85Zm23.228-34.842H61.553V220.663H166.078Zm46.455-29.035a5.812,5.812,0,0,1-5.807,5.807H17.421a5.812,5.812,0,0,1-5.807-5.807V98.718a5.814,5.814,0,0,1,5.807-5.807H206.727a5.814,5.814,0,0,1,5.807,5.807Zm11.614-87.1h11.614v58.069H224.147ZM285.7,203.726l-38.326-26.739V113.362L285.7,86.623Zm0,0" transform="translate(0 0)" fill="#c19a4d"/>
        <path id="Path_35" data-name="Path 35" d="M113.421,50a17.421,17.421,0,1,0,17.421,17.421A17.44,17.44,0,0,0,113.421,50Zm0,23.228a5.807,5.807,0,1,1,5.807-5.807A5.812,5.812,0,0,1,113.421,73.228Zm0,0" transform="translate(-40.253 -20.965)" fill="#c19a4d"/>
        <path id="Path_36" data-name="Path 36" d="M253.421,84.842A17.421,17.421,0,1,0,236,67.421,17.44,17.44,0,0,0,253.421,84.842Zm0-23.228a5.807,5.807,0,1,1-5.807,5.807A5.814,5.814,0,0,1,253.421,61.614Zm0,0" transform="translate(-98.956 -20.965)" fill="#c19a4d"/>
        <path id="Path_37" data-name="Path 37" d="M158.911,240.648V205.807A5.806,5.806,0,0,0,153.1,200h-81.3A5.806,5.806,0,0,0,66,205.807v34.842a5.807,5.807,0,0,0,5.807,5.807h81.3A5.807,5.807,0,0,0,158.911,240.648ZM147.3,234.842H77.614V211.614H147.3Zm0,0" transform="translate(-27.674 -83.862)" fill="#c19a4d"/>
        <path id="Path_38" data-name="Path 38" d="M227.946,300H111.807a5.807,5.807,0,0,0,0,11.614H227.946a5.807,5.807,0,1,0,0-11.614Zm0,0" transform="translate(-44.447 -125.792)" fill="#c19a4d"/>
      </g>
    </g>
    <g id="Group_45" data-name="Group 45" transform="matrix(0.891, 0.454, -0.454, 0.891, 209.92, 765.451)">
      <g id="Group_41" data-name="Group 41" transform="matrix(0.951, 0.309, -0.309, 0.951, 33.877, 0)">
        <g id="molecular" transform="translate(0 0)">
          <path id="Path_83" data-name="Path 83" d="M97.853,69.645l6.378,3.7V91.653L88.468,100.8,72.7,91.653V73.346L88.468,64.2l6.6,3.832,1.615-2.783L88.468,60.48,71.1,70.56,55.332,61.413V41.253l-7.479-4.34L46.239,39.7l5.877,3.41V61.413L36.352,70.56,20.589,61.413V43.106l15.763-9.147,7.1,4.123L45.071,35.3l-7.11-4.126V11.014L18.981,0,0,11.014V20.24H3.217V12.866L18.981,3.72l15.763,9.146V31.174L18.981,40.32,3.217,31.174V23.457H0v9.568l17.372,10.08V61.413L0,71.493V93.506l7.239,4.2,1.614-2.782-5.637-3.27V73.346L18.981,64.2l15.763,9.147V91.653L18.981,100.8l-7.344-4.261-1.614,2.783,8.959,5.2,17.371-10.08,7.039,4.085,1.614-2.783L37.96,91.653V73.346L53.724,64.2l15.764,9.147V91.653L53.724,100.8l-5.936-3.444-1.614,2.783,7.55,4.381L71.1,94.439l17.371,10.08,18.981-11.013V71.493l-7.98-4.631Zm0,0" transform="translate(0 5.11)" fill="#c19a4d"/>
          <path id="Path_84" data-name="Path 84" d="M9.115,28.095a9.125,9.125,0,0,0,8.294-5.342l7.433,1.777a13.384,13.384,0,0,0,5.772,13.306L28.06,41.284a9.142,9.142,0,1,0,2.8,1.621l2.661-3.594a13.4,13.4,0,0,0,15.91-19.7l2.975-2.717a9.15,9.15,0,1,0-2.416-2.15L47.411,17.1a13.391,13.391,0,0,0-21.669,4.336l-7.539-1.8c.016-.217.026-.435.026-.655a9.115,9.115,0,1,0-9.114,9.114ZM57.156,3.217a5.9,5.9,0,1,1-5.9,5.9,5.9,5.9,0,0,1,5.9-5.9ZM30.883,49.864a5.9,5.9,0,1,1-5.9-5.9A5.9,5.9,0,0,1,30.883,49.864Zm7.185-33.35A10.187,10.187,0,1,1,27.881,26.7,10.2,10.2,0,0,1,38.068,16.514ZM9.115,13.082a5.9,5.9,0,1,1-5.9,5.9A5.9,5.9,0,0,1,9.115,13.082Zm0,0" transform="translate(43.322 0)" fill="#c19a4d"/>
          <path id="Path_85" data-name="Path 85" d="M17.926,2.783,16.311,0,6.18,5.879,1.615,3.229,0,6.012,6.18,9.6Zm0,0" transform="translate(47.544 92.593)" fill="#c19a4d"/>
          <path id="Path_86" data-name="Path 86" d="M0,2.783,1.614,0,4.4,1.615,2.782,4.4Zm0,0" transform="translate(41.977 92.596)" fill="#c19a4d"/>
          <path id="Path_87" data-name="Path 87" d="M7.789,17.258V3.582L1.614,0,0,2.783,4.571,5.435V17.258Zm0,0" transform="translate(93.226 76.727)" fill="#c19a4d"/>
          <path id="Path_88" data-name="Path 88" d="M0,2.783,1.614,0,4.4,1.615,2.782,4.4Zm0,0" transform="translate(87.66 73.503)" fill="#c19a4d"/>
          <path id="Path_89" data-name="Path 89" d="M0,2.782,1.615,0,6.987,3.117,5.373,5.9Zm0,0" transform="translate(7.232 92.596)" fill="#c19a4d"/>
          <path id="Path_90" data-name="Path 90" d="M0,2.782,1.615,0,4.4,1.614,2.783,4.4Zm0,0" transform="translate(15.387 97.329)" fill="#c19a4d"/>
          <path id="Path_91" data-name="Path 91" d="M0,0H3.218V3.217H0ZM0,0" transform="translate(6.434 30.288)" fill="#c19a4d"/>
          <path id="Path_92" data-name="Path 92" d="M0,0H3.218V6.315H0ZM0,0" transform="translate(6.434 20.755)" fill="#c19a4d"/>
          <path id="Path_93" data-name="Path 93" d="M0,2.783,1.615,0,4.4,1.614,2.783,4.4Zm0,0" transform="translate(35.544 43.261)" fill="#c19a4d"/>
          <path id="Path_94" data-name="Path 94" d="M7.789,17.258V3.582L1.614,0,0,2.783,4.571,5.435V17.258Zm0,0" transform="translate(41.11 46.487)" fill="#c19a4d"/>
          <path id="Path_95" data-name="Path 95" d="M3.753,6.971H6.97A6.978,6.978,0,0,0,0,0V3.217A3.758,3.758,0,0,1,3.753,6.971Zm0,0" transform="translate(81.391 19.731)" fill="#c19a4d"/>
        </g>
      </g>
    </g>
    <g id="Group_46" data-name="Group 46" transform="translate(656.152 131.442) rotate(112)">
      <g id="Group_38" data-name="Group 38" transform="translate(0 0)">
        <g id="calculator" transform="translate(0 0)">
          <path id="Path_62" data-name="Path 62" d="M15.268,0H1.666A1.666,1.666,0,0,0,0,1.666v13.6a1.666,1.666,0,0,0,1.666,1.666h13.6a1.666,1.666,0,0,0,1.666-1.666V1.666A1.666,1.666,0,0,0,15.268,0ZM13.6,13.6H3.331V3.331H13.6Z" transform="translate(47.192 78.561)" fill="#c19a4d"/>
          <path id="Path_63" data-name="Path 63" d="M15.268,0H1.666A1.666,1.666,0,0,0,0,1.666v13.6a1.666,1.666,0,0,0,1.666,1.666h13.6a1.666,1.666,0,0,0,1.666-1.666V1.666A1.665,1.665,0,0,0,15.268,0ZM13.6,13.6H3.331V3.331H13.6Z" transform="translate(26.927 78.561)" fill="#c19a4d"/>
          <path id="Path_64" data-name="Path 64" d="M15.268,0H1.666A1.666,1.666,0,0,0,0,1.666v13.6a1.666,1.666,0,0,0,1.666,1.666h13.6a1.666,1.666,0,0,0,1.666-1.666V1.666A1.665,1.665,0,0,0,15.268,0ZM13.6,13.6H3.331V3.331H13.6Z" transform="translate(26.927 58.296)" fill="#c19a4d"/>
          <path id="Path_65" data-name="Path 65" d="M15.268,0H1.666A1.666,1.666,0,0,0,0,1.666v13.6a1.666,1.666,0,0,0,1.666,1.666h13.6a1.666,1.666,0,0,0,1.666-1.666V1.666A1.666,1.666,0,0,0,15.268,0ZM13.6,13.6H3.331V3.331H13.6Z" transform="translate(6.662 78.561)" fill="#c19a4d"/>
          <path id="Path_66" data-name="Path 66" d="M15.268,0H1.666A1.665,1.665,0,0,0,0,1.666V8.328A1.665,1.665,0,0,0,1.666,9.994h13.6a1.665,1.665,0,0,0,1.666-1.666V1.666A1.665,1.665,0,0,0,15.268,0ZM13.6,6.662H3.331V3.331H13.6Z" transform="translate(67.457 44.972)" fill="#c19a4d"/>
          <path id="Path_67" data-name="Path 67" d="M15.268,0H1.666A1.666,1.666,0,0,0,0,1.666v13.6a1.666,1.666,0,0,0,1.666,1.666h13.6a1.666,1.666,0,0,0,1.666-1.666V1.666A1.666,1.666,0,0,0,15.268,0ZM13.6,13.6H3.331V3.331H13.6Z" transform="translate(47.192 58.296)" fill="#c19a4d"/>
          <path id="Path_68" data-name="Path 68" d="M15.268,0H1.666A1.666,1.666,0,0,0,0,1.666v13.6a1.666,1.666,0,0,0,1.666,1.666h13.6a1.666,1.666,0,0,0,1.666-1.666V1.666A1.666,1.666,0,0,0,15.268,0ZM13.6,13.6H3.331V3.331H13.6Z" transform="translate(6.662 58.296)" fill="#c19a4d"/>
          <path id="Path_69" data-name="Path 69" d="M15.268,0H1.666A1.665,1.665,0,0,0,0,1.666V8.328A1.666,1.666,0,0,0,1.666,9.994h13.6a1.666,1.666,0,0,0,1.666-1.666V1.666A1.665,1.665,0,0,0,15.268,0ZM13.6,6.662H3.331V3.331H13.6Z" transform="translate(47.192 44.972)" fill="#c19a4d"/>
          <path id="Path_70" data-name="Path 70" d="M82.726,0H8.328A8.337,8.337,0,0,0,0,8.328V96.05a8.337,8.337,0,0,0,8.328,8.328h74.4a8.337,8.337,0,0,0,8.328-8.328V8.328A8.337,8.337,0,0,0,82.726,0Zm5,96.05a5,5,0,0,1-5,5H8.328a5,5,0,0,1-5-5V8.328a5,5,0,0,1,5-5h74.4a5,5,0,0,1,5,5Z" fill="#c19a4d"/>
          <path id="Path_71" data-name="Path 71" d="M15.268,0H1.666A1.665,1.665,0,0,0,0,1.666V35.533A1.665,1.665,0,0,0,1.666,37.2h13.6a1.665,1.665,0,0,0,1.666-1.666V14.991a1.666,1.666,0,0,0-3.331,0V33.867H3.331V3.331H13.6v5a1.666,1.666,0,0,0,3.331,0V1.666A1.665,1.665,0,0,0,15.268,0Z" transform="translate(67.457 58.296)" fill="#c19a4d"/>
          <path id="Path_72" data-name="Path 72" d="M76.063,0H1.666A1.666,1.666,0,0,0,0,1.666V28.871a1.666,1.666,0,0,0,1.666,1.666h13.6a1.666,1.666,0,1,0,0-3.331H3.331V3.331H74.4V27.205H21.931a1.666,1.666,0,1,0,0,3.331H76.063a1.665,1.665,0,0,0,1.666-1.666V1.666A1.665,1.665,0,0,0,76.063,0Z" transform="translate(6.662 8.883)" fill="#c19a4d"/>
          <path id="Path_73" data-name="Path 73" d="M1.666,3.331H8.328A1.666,1.666,0,1,0,8.328,0H1.666a1.666,1.666,0,0,0,0,3.331Z" transform="translate(67.735 15.546)" fill="#c19a4d"/>
          <path id="Path_74" data-name="Path 74" d="M1.666,3.331H8.328A1.666,1.666,0,1,0,8.328,0H1.666a1.666,1.666,0,0,0,0,3.331Z" transform="translate(67.735 28.871)" fill="#c19a4d"/>
          <path id="Path_75" data-name="Path 75" d="M0,6.107a1.666,1.666,0,1,0,3.331,0V1.666A1.666,1.666,0,1,0,0,1.666Z" transform="translate(67.735 19.987)" fill="#c19a4d"/>
        </g>
      </g>
    </g>
    <g id="Group_37" data-name="Group 37" transform="translate(1359.568 307.371) rotate(30)">
      <g id="binary-code" transform="translate(0 0)">
        <path id="Path_45" data-name="Path 45" d="M1.673,3.347A1.676,1.676,0,1,0,.491,2.856,1.68,1.68,0,0,0,1.673,3.347Z" transform="translate(7.14 7.14)" fill="#c19a4d"/>
        <path id="Path_46" data-name="Path 46" d="M1.673,3.347A1.676,1.676,0,1,0,.491,2.856,1.676,1.676,0,0,0,1.673,3.347Z" transform="translate(12.494 7.14)" fill="#c19a4d"/>
        <path id="Path_47" data-name="Path 47" d="M1.673,3.347A1.676,1.676,0,1,0,.491,2.856,1.68,1.68,0,0,0,1.673,3.347Z" transform="translate(17.849 7.14)" fill="#c19a4d"/>
        <path id="Path_48" data-name="Path 48" d="M1.673,3.347H69.5A1.673,1.673,0,1,0,69.5,0H1.673a1.673,1.673,0,1,0,0,3.347Z" transform="translate(24.988 7.14)" fill="#c19a4d"/>
        <path id="Path_49" data-name="Path 49" d="M1.673,3.347h3.57A1.673,1.673,0,1,0,5.243,0H1.673a1.673,1.673,0,1,0,0,3.347Z" transform="translate(99.953 7.14)" fill="#c19a4d"/>
        <path id="Path_50" data-name="Path 50" d="M10.6,0H7.028A7.036,7.036,0,0,0,0,7.028V17.737a7.036,7.036,0,0,0,7.028,7.028H10.6a7.036,7.036,0,0,0,7.028-7.028V7.028A7.036,7.036,0,0,0,10.6,0Zm3.681,17.737A3.686,3.686,0,0,1,10.6,21.419H7.028a3.686,3.686,0,0,1-3.681-3.681V7.028A3.686,3.686,0,0,1,7.028,3.347H10.6a3.685,3.685,0,0,1,3.681,3.681Z" transform="translate(8.924 24.988)" fill="#c19a4d"/>
        <path id="Path_51" data-name="Path 51" d="M17.626,17.737V7.028A7.036,7.036,0,0,0,10.6,0H7.028A7.036,7.036,0,0,0,0,7.028V17.737a7.036,7.036,0,0,0,7.028,7.028H10.6A7.036,7.036,0,0,0,17.626,17.737Zm-3.347,0A3.686,3.686,0,0,1,10.6,21.419H7.028a3.686,3.686,0,0,1-3.681-3.681V7.028A3.685,3.685,0,0,1,7.028,3.347H10.6a3.685,3.685,0,0,1,3.681,3.681Z" transform="translate(58.901 24.988)" fill="#c19a4d"/>
        <path id="Path_52" data-name="Path 52" d="M10.6,0H7.028A7.036,7.036,0,0,0,0,7.028V17.737a7.036,7.036,0,0,0,7.028,7.028H10.6a7.036,7.036,0,0,0,7.028-7.028V7.028A7.036,7.036,0,0,0,10.6,0Zm3.681,17.737A3.686,3.686,0,0,1,10.6,21.419H7.028a3.685,3.685,0,0,1-3.681-3.681V7.028A3.686,3.686,0,0,1,7.028,3.347H10.6a3.686,3.686,0,0,1,3.681,3.681Z" transform="translate(26.773 53.546)" fill="#c19a4d"/>
        <path id="Path_53" data-name="Path 53" d="M10.6,0H7.028A7.036,7.036,0,0,0,0,7.028V17.737a7.036,7.036,0,0,0,7.028,7.028H10.6a7.036,7.036,0,0,0,7.028-7.028V7.028A7.036,7.036,0,0,0,10.6,0Zm3.681,17.737A3.686,3.686,0,0,1,10.6,21.419H7.028a3.685,3.685,0,0,1-3.681-3.681V7.028A3.686,3.686,0,0,1,7.028,3.347H10.6a3.686,3.686,0,0,1,3.681,3.681Z" transform="translate(48.192 53.546)" fill="#c19a4d"/>
        <path id="Path_54" data-name="Path 54" d="M10.6,0H7.028A7.036,7.036,0,0,0,0,7.028V17.737a7.036,7.036,0,0,0,7.028,7.028H10.6a7.036,7.036,0,0,0,7.028-7.028V7.028A7.036,7.036,0,0,0,10.6,0Zm3.681,17.737A3.686,3.686,0,0,1,10.6,21.419H7.028a3.686,3.686,0,0,1-3.681-3.681V7.028A3.686,3.686,0,0,1,7.028,3.347H10.6a3.686,3.686,0,0,1,3.681,3.681Z" transform="translate(83.889 53.546)" fill="#c19a4d"/>
        <path id="Path_55" data-name="Path 55" d="M1.673,21.419a1.673,1.673,0,0,0,0,3.347h7.14a1.673,1.673,0,0,0,0-3.347h-1.9V1.673a1.673,1.673,0,1,0-3.347,0v1.9h-1.9a1.673,1.673,0,1,0,0,3.347h1.9v14.5Z" transform="translate(30.343 24.988)" fill="#c19a4d"/>
        <path id="Path_56" data-name="Path 56" d="M8.813,21.419h-1.9V1.673a1.673,1.673,0,1,0-3.347,0v1.9h-1.9a1.673,1.673,0,0,0,0,3.347h1.9v14.5h-1.9a1.673,1.673,0,0,0,0,3.347h7.14a1.673,1.673,0,0,0,0-3.347Z" transform="translate(12.494 53.546)" fill="#c19a4d"/>
        <path id="Path_57" data-name="Path 57" d="M8.813,21.419h-1.9V1.673a1.673,1.673,0,1,0-3.347,0v1.9h-1.9a1.673,1.673,0,1,0,0,3.347h1.9v14.5h-1.9a1.673,1.673,0,1,0,0,3.347H8.813a1.673,1.673,0,1,0,0-3.347Z" transform="translate(69.61 53.546)" fill="#c19a4d"/>
        <path id="Path_58" data-name="Path 58" d="M8.813,24.765a1.673,1.673,0,0,0,0-3.347h-1.9V1.673a1.673,1.673,0,1,0-3.347,0v1.9h-1.9a1.673,1.673,0,1,0,0,3.347h1.9v14.5h-1.9a1.673,1.673,0,0,0,0,3.347Z" transform="translate(44.622 24.988)" fill="#c19a4d"/>
        <path id="Path_59" data-name="Path 59" d="M8.813,24.765a1.673,1.673,0,1,0,0-3.347h-1.9V1.673a1.673,1.673,0,0,0-3.347,0v1.9h-1.9a1.673,1.673,0,0,0,0,3.347h1.9v14.5h-1.9a1.673,1.673,0,0,0,0,3.347Z" transform="translate(80.319 24.988)" fill="#c19a4d"/>
        <path id="Path_60" data-name="Path 60" d="M8.813,21.419h-1.9V1.673a1.673,1.673,0,1,0-3.347,0v1.9h-1.9a1.673,1.673,0,1,0,0,3.347h1.9v14.5h-1.9a1.673,1.673,0,1,0,0,3.347H8.813a1.673,1.673,0,0,0,0-3.347Z" transform="translate(94.598 24.988)" fill="#c19a4d"/>
        <path id="Path_61" data-name="Path 61" d="M105.2,0H8.813A8.823,8.823,0,0,0,0,8.813v71.4a8.823,8.823,0,0,0,8.813,8.813H105.2a8.823,8.823,0,0,0,8.813-8.813V8.813A8.823,8.823,0,0,0,105.2,0ZM8.813,3.347H105.2a5.472,5.472,0,0,1,5.466,5.466v5.466H3.347V8.813A5.472,5.472,0,0,1,8.813,3.347ZM105.2,85.674H8.813a5.472,5.472,0,0,1-5.466-5.466V17.626H110.662V80.208A5.472,5.472,0,0,1,105.2,85.674Z" transform="translate(0)" fill="#c19a4d"/>
      </g>
    </g>
    <g id="Group_44" data-name="Group 44" transform="matrix(-0.899, 0.438, -0.438, -0.899, 735.643, 478.131)">
      <g id="atom" transform="translate(0 0)">
        <path id="Path_39" data-name="Path 39" d="M77.217,27.219c-1.715-.659-3.544-1.258-5.467-1.795.5-1.934.893-3.818,1.179-5.633,1.49-9.446-.157-16.072-4.635-18.658A8.771,8.771,0,0,0,63.846,0C58.638,0,52.057,3.868,45.418,10.4c-1.45-1.424-2.907-2.733-4.36-3.907-7.436-6.013-14-7.9-18.476-5.315C19.7,2.84,17.954,6.233,17.521,10.991a1.453,1.453,0,1,0,2.894.263c.24-2.634,1.062-6.083,3.621-7.56,3.315-1.914,8.854-.071,15.2,5.058,1.384,1.119,2.773,2.367,4.158,3.726A94.113,94.113,0,0,0,35.173,22.62a93.483,93.483,0,0,0-13.231,2.121,52.776,52.776,0,0,1-1.451-7.91,1.453,1.453,0,1,0-2.892.285,55.579,55.579,0,0,0,1.534,8.357c-1.859.524-3.629,1.107-5.291,1.746C4.915,30.652,0,35.391,0,40.562s4.915,9.91,13.841,13.343c1.715.659,3.544,1.258,5.467,1.8-.5,1.934-.893,3.818-1.179,5.633-1.49,9.446.157,16.072,4.635,18.658a8.771,8.771,0,0,0,4.447,1.133c5.148,0,11.638-3.781,18.2-10.177,1.406,1.373,2.817,2.637,4.224,3.774,5.262,4.256,10.086,6.445,14.044,6.445a8.729,8.729,0,0,0,4.432-1.13c4.479-2.586,6.125-9.212,4.635-18.658-.286-1.815-.683-3.7-1.179-5.632a55.843,55.843,0,0,0,8.179-2.9,1.453,1.453,0,1,0-1.2-2.647,53.034,53.034,0,0,1-7.758,2.75,93.51,93.51,0,0,0-4.645-12.168A93.926,93.926,0,0,0,70.976,28.2c10.785,3.02,17.175,7.789,17.175,12.361,0,2.954-2.576,5.391-4.737,6.915a1.453,1.453,0,1,0,1.675,2.375c3.9-2.754,5.968-5.967,5.968-9.29,0-5.171-4.915-9.91-13.841-13.343ZM63.846,2.906a5.907,5.907,0,0,1,2.994.744c3.315,1.914,4.488,7.633,3.217,15.689-.272,1.726-.649,3.518-1.122,5.361a93.967,93.967,0,0,0-13.277-2.1,93.721,93.721,0,0,0-8.21-10.123q.772-.761,1.543-1.473c5.667-5.222,10.942-8.1,14.854-8.1ZM45.422,14.56a88.141,88.141,0,0,1,6.456,7.769q-3.13-.171-6.349-.173c-2.215,0-4.405.062-6.559.183A89.892,89.892,0,0,1,45.422,14.56ZM45.412,66.8a87.984,87.984,0,0,1-6.681-8.034c2.231.131,4.5.2,6.8.2,2.212,0,4.4-.065,6.562-.188A89.386,89.386,0,0,1,45.412,66.8Zm.117-10.742c-3.122,0-6.118-.121-8.973-.346-1.6-2.34-3.155-4.8-4.632-7.359-1.454-2.518-2.791-5.058-4-7.586,1.257-2.647,2.656-5.311,4.184-7.958,1.48-2.564,3.051-5.049,4.684-7.422,2.785-.213,5.7-.328,8.739-.328,2.959,0,5.8.109,8.523.312,1.634,2.377,3.214,4.879,4.717,7.483,1.521,2.634,2.913,5.285,4.165,7.919-1.2,2.507-2.536,5.029-3.983,7.535-1.477,2.559-3.046,5.04-4.675,7.408C51.426,55.944,48.5,56.061,45.529,56.061Zm-12.712-.708a86.845,86.845,0,0,1-9.92-1.707,87.8,87.8,0,0,1,3.474-9.453q1.423,2.815,3.038,5.616Q31.055,52.663,32.817,55.353Zm.231-29.609q-1.776,2.708-3.458,5.615-1.724,2.986-3.231,5.992a89.128,89.128,0,0,1-3.64-9.832,86.865,86.865,0,0,1,10.329-1.775ZM2.906,40.562c0-4.547,6.323-9.29,17-12.312a94.828,94.828,0,0,0,4.806,12.525,93.453,93.453,0,0,0-4.633,12.148C9.3,49.9,2.906,45.134,2.906,40.562ZM27.212,78.218a5.906,5.906,0,0,1-2.994-.744C20.9,75.56,19.729,69.842,21,61.786c.272-1.726.649-3.518,1.122-5.361a93.451,93.451,0,0,0,12.82,2.057,93.651,93.651,0,0,0,8.433,10.394q-.655.64-1.31,1.244C36.4,75.342,31.123,78.218,27.212,78.218ZM69.876,61.831c1.271,8.056.1,13.775-3.217,15.689s-8.854.071-15.2-5.058c-1.335-1.08-2.676-2.28-4.013-3.584A93.719,93.719,0,0,0,55.89,58.5a94.892,94.892,0,0,0,12.862-2.036C69.226,58.307,69.6,60.1,69.876,61.831Zm-1.9-8.167a89.192,89.192,0,0,1-9.946,1.694q1.768-2.7,3.443-5.593,1.6-2.777,3.018-5.571a87.8,87.8,0,0,1,3.485,9.471ZM64.5,37.362Q63,34.38,61.286,31.4q-1.691-2.929-3.5-5.686a87.356,87.356,0,0,1,10.377,1.759A88.285,88.285,0,0,1,64.5,37.362Z" fill="#c19a4d"/>
        <path id="Path_40" data-name="Path 40" d="M7.265,0A7.265,7.265,0,1,0,14.53,7.265,7.273,7.273,0,0,0,7.265,0Zm0,11.624a4.359,4.359,0,1,1,4.359-4.359A4.364,4.364,0,0,1,7.265,11.624Z" transform="translate(38.264 33.297)" fill="#c19a4d"/>
      </g>
    </g>
    <g id="soccer_1_" data-name="soccer (1)" transform="matrix(0.848, -0.53, 0.53, 0.848, 832.991, 243.899)">
      <g id="Group_80" data-name="Group 80" transform="translate(0 0)">
        <path id="Path_116" data-name="Path 116" d="M144.991,24.877A84.934,84.934,0,0,0,0,84.934a85.43,85.43,0,0,0,1.968,18.261,2.517,2.517,0,0,0,3.076,1.889h0a2.525,2.525,0,0,0,1.845-3A80.375,80.375,0,0,1,5.046,84.934c0-1.607.053-3.206.147-4.8l14.3-10.9,27.85,6.29,12.821,39.459-13.9,24.739-18.7.816a79.653,79.653,0,0,1-17.355-27.3A2.523,2.523,0,0,0,5.475,115,84.945,84.945,0,1,0,144.991,24.877ZM164,73.448l-10.268-7.823,4.443-12.683A79.137,79.137,0,0,1,164,73.448Zm-79.07-68.4a81.172,81.172,0,0,1,10.552.691L84.935,13.4,74.384,5.737A81.21,81.21,0,0,1,84.934,5.046ZM5.889,73.263A79.155,79.155,0,0,1,11.569,53.22l4.346,12.405Zm14.932-8.9L14.679,46.835A80.206,80.206,0,0,1,28.444,28.444,79.351,79.351,0,0,1,67.47,6.95L82.411,17.807V46.17L48.7,70.663Zm31.435,9.949L84.934,50.574l12.652,9.191a2.523,2.523,0,0,0,2.965-4.082l-13.1-9.513V17.808L102.4,6.951a79.351,79.351,0,0,1,39.025,21.494,80.219,80.219,0,0,1,13.634,18.15l-6.226,17.772-27.713,6.259-11.085-8.053a2.523,2.523,0,1,0-2.966,4.082l10.545,7.662L105.13,112.732H64.738ZM32.674,145.372l13.38-.584,4.6,12.31A80.123,80.123,0,0,1,32.674,145.372Zm52.26,19.451a79.8,79.8,0,0,1-27.88-5.019l-6.5-17.4,13.836-24.626h40.878L119.1,142.4l-6.555,17.535A79.91,79.91,0,0,1,84.934,164.822Zm34-7.55,4.667-12.486,13.579.591A79.589,79.589,0,0,1,118.93,157.273Zm23.347-16.723-18.891-.822-13.763-24.494,12.918-39.756,27.616-6.237,14.53,11.07c.087,1.534.136,3.075.136,4.624A79.343,79.343,0,0,1,142.276,140.55Z" transform="translate(0 0)" fill="#c19a4d"/>
      </g>
    </g>
    <g id="violin" transform="translate(945.617 933.724) rotate(-96)">
      <g id="Group_83" data-name="Group 83" transform="translate(92.392 140.333)">
        <g id="Group_82" data-name="Group 82" transform="translate(0 0)">
          <path id="Path_118" data-name="Path 118" d="M18.443,10.8A7.442,7.442,0,0,0,16.1.537,3.509,3.509,0,1,0,12.366,6.48a.423.423,0,0,1,.134.586L1.138,25.169A7.451,7.451,0,0,0,3.483,35.43a3.509,3.509,0,0,0,3.731-5.943.425.425,0,0,1-.134-.587Z" fill="#c19a4d"/>
        </g>
      </g>
      <g id="Group_85" data-name="Group 85" transform="translate(59.825 124.148)">
        <g id="Group_84" data-name="Group 84" transform="translate(0 0)">
          <path id="Path_119" data-name="Path 119" d="M35.43,3.489A7.443,7.443,0,0,0,25.17,1.142L7.066,12.506a.424.424,0,0,1-.586-.134A3.509,3.509,0,1,0,.537,16.1a7.393,7.393,0,0,0,4.645,3.3,7.519,7.519,0,0,0,1.673.19A7.4,7.4,0,0,0,10.8,18.449L28.9,7.086a.424.424,0,0,1,.586.134A3.509,3.509,0,1,0,35.43,3.489Z" fill="#c19a4d"/>
        </g>
      </g>
      <g id="Group_87" data-name="Group 87" transform="translate(0 0)">
        <g id="Group_86" data-name="Group 86">
          <path id="Path_120" data-name="Path 120" d="M232.774,31.314a10.749,10.749,0,0,0-12.752-1.26L219,29.033l3.046-3.267a5.765,5.765,0,0,0,1.015.094,5.673,5.673,0,0,0,1.662-.246,6.1,6.1,0,0,0,3.264-2.489l7.17-10.741a5.8,5.8,0,0,0-.721-7.3h0l-3.391-3.391a5.8,5.8,0,0,0-7.3-.722l-10.9,7.277a5.743,5.743,0,0,0-2.476,5.828l-3.272,3.05-1.451-1.451A10.756,10.756,0,1,0,195.568,22.6a10.982,10.982,0,0,0,1.338-.083,10.712,10.712,0,0,0,4.206-1.449l.845.845-12.84,11.969-.842-.842a10.784,10.784,0,0,0-5.5-13.593,10.176,10.176,0,0,0-3.64-.973,10.765,10.765,0,0,0-10.063,5.06,10.609,10.609,0,0,0-1.616,5.539,10.762,10.762,0,0,0,16.285,9.361l.236.236-36.8,34.3A50.54,50.54,0,0,0,122.845,64.4,35,35,0,0,0,107.48,66.7L73.6,32.819A15.119,15.119,0,0,0,53.253,31.9l-.48-.48a3.6,3.6,0,0,0-4.988-.178,3.509,3.509,0,0,0-.077,5.037L91.594,80.166A45.3,45.3,0,0,0,87.105,87.5a15.693,15.693,0,0,1-7.5,6.34,5.745,5.745,0,0,0-3.582,5.345,5.528,5.528,0,0,0,3.431,5.131l.212.089a3.507,3.507,0,0,0,.435.206,1.552,1.552,0,0,1,.785.559c1.224,1.831-1.989,8.982-10.914,15.172-6.761,4.694-12.956,6.194-16.1,5.6a2.579,2.579,0,0,1-1.569-.761c-.068-.122-.449-.837-1.486-3.364a5.179,5.179,0,0,0-4.789-3.206,5.346,5.346,0,0,0-4.962,3.3,15.654,15.654,0,0,1-3.377,5.032A15.1,15.1,0,0,1,32,130.531q-1.681.581-3.311,1.229a3.516,3.516,0,0,0-1.914,4.729v0a3.505,3.505,0,0,0,4.488,1.8q1.488-.591,3.033-1.126a22.178,22.178,0,0,0,8.348-5.254,22.649,22.649,0,0,0,3.175-3.982,8.469,8.469,0,0,0,.624,1.131,9.147,9.147,0,0,0,6.115,3.782c5.676,1.072,13.878-1.5,21.405-6.73C85.4,118.181,90.88,107.5,86.707,101.261a8.232,8.232,0,0,0-2.02-2.085,22.7,22.7,0,0,0,8.531-8.227c.051-.1.1-.19.151-.286a37.682,37.682,0,0,1,3.248-5.473l18.074,18.074-13.356,12.451a3.591,3.591,0,0,0-.873,1.2,3.522,3.522,0,0,0,.738,3.889l14.121,14.12a3.521,3.521,0,0,0,2.5,1.027h.042a3.505,3.505,0,0,0,2.5-1.116l12.494-13.4,18.074,18.074a37.925,37.925,0,0,1-5.482,3.259l-.263.139a22.58,22.58,0,0,0-8.241,8.533,8.214,8.214,0,0,0-2.091-2.023c-6.235-4.17-16.915,1.308-24.842,12.741-5.226,7.536-7.8,15.743-6.725,21.417a9.131,9.131,0,0,0,3.772,6.1,9.329,9.329,0,0,0,1.136.629,22.229,22.229,0,0,0-9.231,11.529c-2.767,7.985-6.71,14.8-11.1,19.2C78.893,230,67.4,229.91,59.345,228.254c-8.455-1.738-17.111-5.949-25.06-12.106l16.8-16.8L76.5,185.965a3.509,3.509,0,0,0,.847-5.586l-21.6-21.6a3.509,3.509,0,0,0-5.586.847L36.781,185.043l-16.8,16.8c-6.158-7.95-10.37-16.607-12.109-25.062-1.657-8.058-1.749-19.548,7.225-28.522a33.543,33.543,0,0,1,3.124-2.742A3.508,3.508,0,1,0,13.889,140a40.567,40.567,0,0,0-3.755,3.3C1.409,152.023-1.835,164.417,1,178.2c2.585,12.571,9.946,25.432,20.726,36.211s23.636,18.137,36.207,20.721a47.053,47.053,0,0,0,9.485,1c9.933,0,18.744-3.467,25.411-10.135,5.2-5.2,9.62-12.763,12.772-21.863a15.341,15.341,0,0,1,8.6-9.058,5.4,5.4,0,0,0,1.754-1.168,5.33,5.33,0,0,0,1.462-4.818,5.171,5.171,0,0,0-3.112-3.774c-2.545-1.044-3.228-1.409-3.353-1.48a2.564,2.564,0,0,1-.762-1.564c-.6-3.14.9-9.339,5.6-16.109,6.188-8.924,13.342-12.133,15.169-10.911a1.55,1.55,0,0,1,.57.8,3.466,3.466,0,0,0,.192.406l.054.129.026.061a5.544,5.544,0,0,0,5.147,3.468h.017a5.748,5.748,0,0,0,5.329-3.586,15.62,15.62,0,0,1,6.341-7.494,45.613,45.613,0,0,0,7.332-4.5l65.653,65.653a3.509,3.509,0,0,0,4.962-4.962L214.822,193.47l7.231-7.231a3.509,3.509,0,0,0,0-4.962l-52.632-52.632a35,35,0,0,0,2.3-15.358,50.541,50.541,0,0,0-8.577-24.338l6.879-7.379a3.508,3.508,0,0,0-.174-4.958h0a3.508,3.508,0,0,0-4.958.174l-22.836,24.5-7.212-7.211,79.719-74.317,1.808,1.808L175.507,65.4a3.508,3.508,0,0,0,.174,4.958h0a3.508,3.508,0,0,0,4.958-.174l16.816-18.039.67.67a10.781,10.781,0,1,0,4.53-5.395l-.411-.411,11.969-12.84,1.278,1.278a10.76,10.76,0,1,0,17.283-4.135ZM198.539,14.141a3.74,3.74,0,1,1-.648-5.253A3.714,3.714,0,0,1,198.539,14.141ZM181.173,31.507a3.741,3.741,0,1,1,.765-2.761A3.747,3.747,0,0,1,181.173,31.507ZM54.154,167.109l14.865,14.865L49.633,192.18l-5.686-5.686ZM26.687,209.445c-.735-.735-1.446-1.483-2.146-2.237l15.1-15.1,4.38,4.38-15.1,15.1C28.167,210.889,27.42,210.179,26.687,209.445ZM97.831,73.039q-.879.879-1.694,1.746l-37.88-37.88a8.086,8.086,0,0,1,10.376.876L101.1,70.249A28.139,28.139,0,0,0,97.831,73.039ZM101.1,79.75c.54-.578,1.1-1.16,1.691-1.749a21.73,21.73,0,0,1,3.332-2.728l18.62,18.62-4.917,4.584ZM117.714,127.4l-8.981-8.981,10.925-10.185,8.241,8.241ZM206.2,175.349l8.41,8.41-4.751,4.751-8.409-8.409Zm-4.962-4.962-4.751,4.751L161.34,139.989q.867-.817,1.746-1.694a28.091,28.091,0,0,0,2.79-3.271Zm-43.03-76.14a42.933,42.933,0,0,1,6.512,19.488,29.849,29.849,0,0,1-.823,9.387l-16.876-16.876Zm-15.974,17.136L160.853,130a21.66,21.66,0,0,1-2.728,3.333q-.883.883-1.749,1.691L137.651,116.3Zm-4.965-4.965-4.584,4.917-7.893-7.893,4.917-4.584ZM129.881,89.1,113,72.225A29.917,29.917,0,0,1,122.4,71.4a42.938,42.938,0,0,1,19.489,6.513Zm75.346-34.757a3.722,3.722,0,0,1,2.493-1.412,3.772,3.772,0,0,1,.466-.029,3.742,3.742,0,1,1-2.959,1.44Zm12.758-41.1L226.8,7.367l1.962,1.962-5.882,8.812Zm10.509,28.337a3.743,3.743,0,1,1-.647-5.253A3.747,3.747,0,0,1,228.495,41.587Z" fill="#c19a4d"/>
        </g>
      </g>
    </g>
  </g>
</svg>
